HIERARCHY
ROOT Hips
{
    OFFSET 0.000000 0.000000 0.000000
    CHANNELS 6 Xposition Yposition Zposition Zrotation Xrotation Yrotation
        JOINT Spine1
        {
            OFFSET -0.000000 23.269398 0.000000
            CHANNELS 3 Zrotation Xrotation Yrotation
            JOINT Neck
            {
                OFFSET -0.000000 18.032967 0.000000
                CHANNELS 3 Zrotation Xrotation Yrotation
                JOINT Head
                {
                    OFFSET -0.000000 13.091072 1.689171
                    CHANNELS 3 Zrotation Xrotation Yrotation
                    End Site
                    {
                        OFFSET -0.000000 16.891708 0.000000
                    }
                }
            }
            JOINT LeftShoulder
            {
                OFFSET 3.336773 14.146137 -0.012206
                CHANNELS 3 Zrotation Xrotation Yrotation
                JOINT LeftArm
                {
                    OFFSET 11.765518 0.000000 0.000000
                    CHANNELS 3 Zrotation Xrotation Yrotation
                    JOINT LeftForeArm
                    {
                        OFFSET 25.163450 0.000000 0.000000
                        CHANNELS 3 Zrotation Xrotation Yrotation
                        JOINT LeftHand
                        {
                            OFFSET 21.783554 0.000000 0.000000
                            CHANNELS 3 Zrotation Xrotation Yrotation
                            End Site
                            {
                                OFFSET 12.668781 0.000000 0.000000
                            }
                        }
                    }
                }
            }
            JOINT RightShoulder
            {
                OFFSET -3.409204 14.146137 -0.012206
                CHANNELS 3 Zrotation Xrotation Yrotation
                JOINT RightArm
                {
                    OFFSET -11.765518 0.000000 0.000000
                    CHANNELS 3 Zrotation Xrotation Yrotation
                    JOINT RightForeArm
                    {
                        OFFSET -25.163450 0.000000 0.000000
                        CHANNELS 3 Zrotation Xrotation Yrotation
                        JOINT RightHand
                        {
                            OFFSET -21.783554 0.000000 0.000000
                            CHANNELS 3 Zrotation Xrotation Yrotation
                            End Site
                            {
                                OFFSET -12.668781 0.000000 0.000000
                            }
                        }
                    }
                }
            }
        }
        JOINT LeftUpLeg
    {
        OFFSET 8.445854 0.000000 0.000000
        CHANNELS 3 Zrotation Xrotation Yrotation
        JOINT LeftLeg
        {
            OFFSET -0.000000 -40.674755 0.000000
            CHANNELS 3 Zrotation Xrotation Yrotation
            JOINT LeftFoot
            {
                OFFSET -0.000000 -37.111794 0.000000
                CHANNELS 3 Zrotation Xrotation Yrotation
                JOINT LeftToeBase
                {
                    OFFSET -0.000000 -5.489805 12.668781
                    CHANNELS 3 Zrotation Xrotation Yrotation
                    End Site
                    {
                        OFFSET -0.000000 0.000000 3.378341
                    }
                }
            }
        }
    }
    JOINT RightUpLeg
    {
        OFFSET -8.445854 0.000000 0.000000
        CHANNELS 3 Zrotation Xrotation Yrotation
        JOINT RightLeg
        {
            OFFSET -0.000000 -40.674755 0.000000
            CHANNELS 3 Zrotation Xrotation Yrotation
            JOINT RightFoot
            {
                OFFSET -0.000000 -37.111794 0.000000
                CHANNELS 3 Zrotation Xrotation Yrotation
                JOINT RightToeBase
                {
                    OFFSET -0.000000 -5.489805 12.668781
                    CHANNELS 3 Zrotation Xrotation Yrotation
                    End Site
                    {
                        OFFSET -0.000000 0.000000 3.378341
                    }
                }
            }
        }
    }
}
MOTION
Frames:    8
Frame Time:    0.008333
-139.577881    83.403313    -79.121086    -6.375221    1.133976    -65.986900    -0.883398    13.763340    7.260032    2.553178    5.827445    -3.054315    1.379228    16.995075    -3.059305    0.743966    9.375978    9.035833    -56.962048    29.924263    -29.035341    3.403090    -4.042787    -9.148318    -1.467974    -3.633458    -10.752024    -3.793075    5.780355    -0.685892    59.258194    11.122423    42.977936    11.123517    9.017981    106.010597    -30.222736    -3.107504    -10.081562    1.039308    -10.793025    -0.596603    -0.923748    15.752537    3.746204    5.810638    -4.685639    20.317129    -1.211946    -0.635509    2.070693    -0.484321    3.564299    1.917199    -4.855535    41.695911    7.623580    10.671802    -0.690679    -2.728311    8.862370    -16.765909    11.666279    
-140.046448    83.418640    -78.734085    -6.448519    0.539593    -65.620247    -1.197627    13.955215    7.040287    2.447452    5.811450    -3.024759    1.149036    17.062523    -2.986420    0.760046    9.090445    8.800224    -56.918499    29.922043    -29.200827    3.393416    -3.749895    -8.876699    -1.558825    -3.337012    -11.024207    -3.899721    5.699323    -0.592583    59.134468    11.192509    43.110737    11.111073    8.933756    105.982895    -30.015564    -3.246341    -9.865859    0.235248    -10.223147    -0.581305    -0.426699    16.033642    3.310485    5.510900    -4.078068    19.504002    -2.209296    -1.303038    3.571701    -1.246869    2.912729    1.897076    -4.567160    43.566177    9.291516    11.436420    -0.190554    -3.090008    9.619794    -17.416126    9.834911    
-140.425003    83.388779    -78.310196    -6.502862    0.535330    -65.377556    -1.010425    13.962029    6.754948    2.463227    5.863637    -2.997089    0.801413    17.073992    -2.858781    0.694399    9.255709    8.936365    -56.216846    30.519585    -30.196497    4.829306    -1.939755    -7.969051    -3.180315    -1.260566    -12.308972    -3.976049    5.644723    -0.435750    59.041588    11.234187    43.243172    10.890939    8.826143    105.981354    -30.404634    -2.931678    -10.185370    0.143893    -9.891525    -0.514920    -0.491502    16.130968    3.056045    5.321554    -3.437666    19.358454    -3.017137    -2.409071    3.573830    -1.524065    1.110849    2.308858    -3.436854    46.906567    5.788971    2.696349    -2.033749    4.859051    9.492900    -15.134635    -1.513473    
-140.741959    83.365860    -77.781601    -6.700677    0.184168    -64.995415    -0.632358    14.339998    6.341295    1.676173    5.870739    -2.863331    0.891831    17.043350    -2.890677    0.234021    9.006392    8.627908    -55.603989    30.459972    -30.515253    4.377972    -1.645250    -8.022024    -2.903311    -1.022472    -12.420077    -4.714882    5.566455    -0.476851    59.200012    11.484708    43.521675    10.791113    8.613828    105.950012    -30.294622    -3.021766    -10.151142    -0.488759    -9.260049    -0.674813    -0.354276    16.103992    2.864079    5.816746    -3.607291    19.760553    -2.579665    -2.198314    2.690986    -2.584210    0.191670    1.683606    -2.230066    49.134872    6.742595    -0.396741    -3.889791    5.584783    7.559231    -11.552847    -3.095137    
-141.121933    83.500122    -77.155266    -6.753998    -1.290832    -64.975571    -2.344143    15.146422    6.869388    1.862129    6.156144    -3.044419    1.496364    16.629864    -3.198704    0.742897    8.840940    7.965068    -55.066856    30.558880    -30.971508    4.431152    -1.494341    -7.937226    -2.867809    -0.872958    -12.499285    -3.890886    5.344812    -0.662765    59.126041    11.314073    43.379051    10.817797    8.879685    105.878670    -30.336205    -2.828234    -9.925677    -2.190341    -7.911636    -0.623873    -0.100051    15.619617    2.785179    5.940449    -3.673692    19.642008    -2.616621    -2.281145    2.614680    -4.376983    -0.158311    2.184422    -1.509952    50.815834    7.199539    -0.499000    -4.642190    6.195091    6.629633    -10.040223    -2.898680    
-141.562561    83.470032    -76.771042    -7.092586    -1.333859    -64.665840    -2.115383    15.486744    6.560483    2.363701    5.794367    -3.108263    0.374368    17.271681    -2.877134    0.830333    8.740771    7.902577    -54.493244    30.804045    -31.548950    3.330649    -3.161666    -8.630249    -1.358186    -2.778432    -11.150477    -3.880652    5.213487    -0.545866    59.228256    11.390985    43.392616    10.846144    8.856996    105.895027    -29.857710    -3.030892    -9.580436    -2.137847    -7.165051    -0.674617    -0.256575    15.578267    2.577835    6.212866    -4.492950    19.699524    -1.847458    -1.274881    2.545651    -5.081401    -0.789680    0.642646    -2.019569    52.391739    10.925578    5.864125    -2.475923    2.101629    6.456123    -13.157170    9.095544    
-141.939133    83.415970    -76.356102    -7.465144    -1.506174    -64.347191    -1.944014    15.880420    6.171865    2.175805    5.885711    -3.016448    0.299346    17.291670    -2.794603    0.833190    8.594367    7.844218    -54.087532    30.919527    -32.026390    4.563910    -1.052130    -7.650834    -2.891544    -0.421631    -12.839438    -3.957836    5.138969    -0.342847    59.316429    11.421067    43.457840    10.643411    8.871319    105.907097    -30.035851    -2.696250    -9.700025    -2.300866    -6.375972    -0.543307    -0.113014    15.559516    2.124864    5.211067    -5.959773    19.553646    -0.997684    -0.024318    2.751364    -5.273736    -1.539977    0.827466    -1.190767    54.090935    11.299788    5.177276    -3.200517    2.029099    6.147293    -12.660941    8.755870    
-142.097290    83.430901    -75.744881    -7.233918    -2.101887    -64.273773    -2.553565    16.011341    6.089395    3.046321    5.962073    -3.202873    -1.156412    17.235224    -2.423302    0.988043    8.540579    7.773941    -53.660107    30.993481    -32.666027    3.434224    -2.853034    -8.282353    -1.358511    -2.470161    -11.332239    -3.859283    5.031264    -0.210791    59.332268    11.404301    43.577538    11.094440    9.343021    105.350349    -31.560345    -3.118956    -7.666612    -3.482601    -5.972740    -0.838747    0.209585    15.433271    2.316888    5.428062    -5.259083    19.344790    -1.677578    -0.508808    3.702736    -6.402751    -2.849907    1.001250    -0.511539    55.771774    11.136660    5.231222    -3.670588    3.055780    6.200375    -12.747811    8.818434    
